<?xml version="1.0" encoding="UTF-8" standalone="no"?>
<!-- Created with Inkscape (http://www.inkscape.org/) -->

<svg
   width="12.149542mm"
   height="12.130081mm"
   viewBox="0 0 12.149542 12.130081"
   version="1.1"
   id="svg1"
   xml:space="preserve"
   inkscape:version="1.4.2 (f48b429, 2025-09-25)"
   sodipodi:docname="icon.svg"
   xmlns:inkscape="http://www.inkscape.org/namespaces/inkscape"
   xmlns:sodipodi="http://sodipodi.sourceforge.net/DTD/sodipodi-0.dtd"
   xmlns="http://www.w3.org/2000/svg"
   xmlns:svg="http://www.w3.org/2000/svg"><sodipodi:namedview
     id="namedview1"
     pagecolor="#ffffff"
     bordercolor="#000000"
     borderopacity="0.25"
     inkscape:showpageshadow="2"
     inkscape:pageopacity="0.0"
     inkscape:pagecheckerboard="0"
     inkscape:deskcolor="#d1d1d1"
     inkscape:document-units="mm"
     showgrid="true"
     inkscape:zoom="13.372787"
     inkscape:cx="24.078751"
     inkscape:cy="32.97742"
     inkscape:window-width="3360"
     inkscape:window-height="1831"
     inkscape:window-x="0"
     inkscape:window-y="31"
     inkscape:window-maximized="0"
     inkscape:current-layer="layer1"><inkscape:grid
       id="grid1"
       units="mm"
       originx="-59.8865"
       originy="-154.88649"
       spacingx="0.99999998"
       spacingy="1"
       empcolor="#0099e5"
       empopacity="0.30196078"
       color="#0099e5"
       opacity="0.14901961"
       empspacing="5"
       enabled="true"
       visible="true" /></sodipodi:namedview><defs
     id="defs1" /><g
     inkscape:label="Layer 1"
     inkscape:groupmode="layer"
     id="layer1"
     transform="translate(-59.8865,-154.8865)"><rect
       style="fill:#ffffff;fill-opacity:1;stroke:#1f2328;stroke-width:0.227;stroke-linejoin:round;stroke-miterlimit:64.6;stroke-opacity:1"
       id="rect1"
       width="11.922542"
       height="11.903081"
       x="60"
       y="155"
       ry="2.9999955" /><g
       id="g63"
       style="fill:#8a2be2;fill-opacity:1"
       transform="matrix(1.0710141,0,0,1.0710141,-2.5684975,-76.990642)"><path
         style="font-size:12.7px;font-family:VALORANT;-inkscape-font-specification:VALORANT;text-align:center;text-anchor:middle;fill:#8a2be2;fill-opacity:1;stroke-width:0.5"
         d="m 59.642407,222.12724 q 0,-0.9779 0.3556,-1.8161 0.3683,-0.8382 0.9779,-1.4605 0.6223,-0.6223 1.4605,-0.9652 0.8382,-0.3556 1.8034,-0.3429 1.0287,0.0127 1.8923,0.4191 0.8763,0.4064 1.5113,1.1176 0.0381,0.0508 0.0254,0.1143 0,0.0635 -0.0508,0.1016 l -1.0033,0.8509 q -0.0508,0.0381 -0.1143,0.0381 -0.0635,-0.0127 -0.1016,-0.0635 -0.4191,-0.4826 -0.9906,-0.762 -0.5715,-0.2921 -1.2319,-0.2794 -0.5969,0.0127 -1.1303,0.2667 -0.5334,0.2413 -0.9271,0.6731 -0.3937,0.4191 -0.6223,0.9779 -0.2286,0.5588 -0.2286,1.1938 0,0.635 0.2413,1.1938 0.2413,0.5588 0.6477,0.9779 0.4064,0.4191 0.9398,0.6604 0.5334,0.2286 1.143,0.2286 0.635,-0.0127 1.1938,-0.2921 0.5588,-0.2794 0.9652,-0.762 0.0381,-0.0508 0.1016,-0.0508 0.0635,-0.0127 0.1143,0.0381 l 1.0033,0.8509 q 0.0508,0.0381 0.0508,0.1016 0.0127,0.0635 -0.0254,0.1143 -0.6477,0.7239 -1.5367,1.143 -0.889,0.4064 -1.9431,0.3937 -0.9525,0 -1.7907,-0.3556 -0.8255,-0.3683 -1.4351,-0.9906 -0.6096,-0.635 -0.9525,-1.4859 -0.3429,-0.8509 -0.3429,-1.8288 z"
         id="path62" /><path
         style="font-size:12.7px;font-family:VALORANT;-inkscape-font-specification:VALORANT;text-align:center;letter-spacing:-3.12473px;text-anchor:middle;fill:#8a2be2;fill-opacity:1;stroke-width:0.5"
         d="m 66.211483,221.35254 h 1.295399 c 0.110067,0 0.1651,0.055 0.1651,0.1651 v 1.3843 c 0,0.11007 -0.05503,0.1651 -0.1651,0.1651 h -1.295399 c -0.110066,0 -0.1651,-0.055 -0.1651,-0.1651 v -1.3843 c 0,-0.11007 0.05503,-0.1651 0.1651,-0.1651 z"
         id="path63"
         sodipodi:nodetypes="sssssssss" /></g></g></svg>
